<svg xmlns="http://www.w3.org/2000/svg" width="1280" viewBox="0 0 960 540" height="720" version="1.0"><defs><clipPath id="a"><path d="M1 0h958v539H1Zm0 0"/></clipPath><clipPath id="b"><path d="M135 54h79v79h-79Zm0 0"/></clipPath><clipPath id="c"><path d="M333 54h75v94h-75Zm0 0"/></clipPath><clipPath id="d"><path d="M316 86h38v73h-38Zm0 0"/></clipPath><clipPath id="e"><path d="M510 54h105v105H510Zm0 0"/></clipPath><clipPath id="f"><path d="M321 230h82v67h-82Zm0 0"/></clipPath><clipPath id="g"><path d="M407 281h13v16h-13Zm0 0"/></clipPath><clipPath id="h"><path d="M304 229h15v27h-15Zm0 0"/></clipPath><clipPath id="i"><path d="M170 429h44v43h-44Zm0 0"/></clipPath><clipPath id="j"><path d="M135 421h32v52h-32Zm0 0"/></clipPath><clipPath id="k"><path d="M535 226h55v71h-55Zm0 0"/></clipPath><clipPath id="l"><path d="M688 54h14v104h-14Zm0 0"/></clipPath><clipPath id="m"><path d="M789 54h14v104h-14Zm0 0"/></clipPath><clipPath id="n"><path d="M692 379h107v106H692Zm0 0"/></clipPath><clipPath id="o"><path d="M287 411h150v60H287Zm0 0"/></clipPath><clipPath id="p"><path d="M165 252h49v48h-49Zm0 0"/></clipPath><clipPath id="q"><path d="M135 225h46v48h-46Zm0 0"/></clipPath><clipPath id="r"><path d="M521 391h83v82h-83Zm0 0"/></clipPath><clipPath id="s"><path d="M746 210h19v20h-19Zm0 0"/></clipPath></defs><g clip-path="url(#a)" fill="#fff"><path d="M1 0h958v546H1Zm0 0"/><path d="M1 0h958v539H1Zm0 0"/><path d="M1 0h958v539H1Zm0 0"/></g><path fill="#fefdef" d="M137 56h38v37h-38ZM175 56h37v37h-37ZM175 93h37v38h-37ZM137 93h38v38h-38Zm0 0" fill-rule="evenodd"/><g clip-path="url(#b)"><path fill="#232323" d="M135 56v75l2 1h77V56l-2-2h-75l-2 2Zm38 73V95h-34v34Zm19 0h-16V95h34v34Zm-37-20-4-4a2 2 0 0 0-3 3l5 4-5 4a2 2 0 0 0 3 3l4-5 4 5a2 2 0 0 0 3-3l-4-4 4-4a2 2 0 0 0-3-3Zm32 9h13a2 2 0 0 0 0-4h-13a2 2 0 0 0 0 4Zm0-8h13a2 2 0 0 0 0-4h-13a2 2 0 0 0 0 4Zm-48-53v34h34V57Zm37 0h34v34h-34Zm-23 16h-6a2 2 0 1 0 0 3h6v6a2 2 0 0 0 4 0v-6h6a2 2 0 0 0 0-3h-6v-6a2 2 0 1 0-4 0Zm46 4a3 3 0 1 0 0 5 3 3 0 0 0 0-5Zm-1-9-11 11a2 2 0 0 0 2 2l11-11a2 2 0 0 0-2-2Zm-10-2a3 3 0 1 0 0 6 3 3 0 0 0 0-6Zm0 0" fill-rule="evenodd"/></g><g clip-path="url(#c)"><path d="M408 78v-1l-23-23h-44c-4 0-7 3-7 7v21l1 1 1-1V61c0-3 2-5 5-5h42v17c0 3 3 6 6 6h17v62c0 2-2 4-5 4h-53l-1 1 1 2h53c4 0 7-4 7-7V78Zm-19-1c-2 0-3-2-3-4V58l18 19Zm0 0"/></g><path d="M340 97a5 5 0 0 0-10 0 5 5 0 0 0 10 0Zm-8 0a3 3 0 0 1 6 0 3 3 0 0 1-6 0Zm0 0"/><g clip-path="url(#d)"><path d="M342 129c1 0 2-1 2-3v-5a19 19 0 0 0-9-35c-10 0-19 9-19 19 0 7 4 13 10 16v5c0 2 1 3 2 3h2v25l4 4 1 1 1-1 7-7v-3l-1-1 1-2 1-1v-1l-1-1-1-1 1-1v-4l-2-3v-4Zm-23-24a16 16 0 0 1 32 0 16 16 0 0 1-32 0Zm9 17a19 19 0 0 0 14 0v4h-14v-4Zm11 13 2 2v1l-2 2v2l2 2-2 2v2l2 1v1l-6 6-3-3v-24h6v5l1 1Zm0 0"/></g><path d="m360 98 2 1 1-1V86l-1-1-2 1ZM374 99c3 0 6-3 6-7s-3-7-6-7-5 3-5 7 2 7 5 7Zm0-12c2 0 3 3 3 5s-1 5-3 5l-2-5 2-5ZM354 72c0-4-2-7-5-7s-5 3-5 7 2 7 5 7 5-3 5-7Zm-8 0c0-2 1-4 3-4 1 0 3 2 3 4 0 3-2 5-3 5-2 0-3-2-3-5ZM374 79c3 0 6-3 6-7s-3-7-6-7-5 3-5 7 2 7 5 7Zm0-11c2 0 3 2 3 4 0 3-1 5-3 5-1 0-2-2-2-5l2-4ZM395 92c0-4-2-7-5-7s-6 3-6 7 3 7 6 7 5-3 5-7Zm-5 5c-2 0-3-3-3-5 0-3 1-5 3-5 1 0 2 2 2 5l-2 5ZM360 116l2 1 1-1v-11l-1-2-2 2ZM391 105l-1-2-2 2v11l2 1 1-1ZM374 117c3 0 6-3 6-7s-3-7-6-7-5 3-5 7 2 7 5 7Zm0-11c2 0 3 2 3 4 0 3-1 5-3 5-1 0-2-2-2-5l2-4ZM360 134l2 2 1-2v-11l-1-1-2 1ZM370 123v11l1 2 1-2v-11l-1-1-1 1ZM379 123v11l1 2 2-2v-11l-2-1-1 1ZM390 122l-2 1v11l2 2 1-2v-11l-1-1ZM362 79l1-1V67l-1-1-2 1v11l2 1Zm0 0"/><g clip-path="url(#e)"><path d="m530 115-6-2a14 14 0 1 0 12 22l13 7a14 14 0 1 0 25-5l19-19a14 14 0 0 0 22-12 14 14 0 0 0-22-11l-19-19c2-2 3-5 3-8a14 14 0 1 0-28 3l-12 4a14 14 0 1 0-7 20l6 10Zm-6 23a10 10 0 1 1 0-21 10 10 0 0 1 0 21Zm13-6a14 14 0 0 0-4-15l5-8 15 25-3 4Zm26-50c3 0 6-1 8-3l19 19-2 5-11-2a14 14 0 0 0-26-8l-2-1 8-12 6 2Zm1 49v-16c6-1 11-5 12-10l11 1c0 4 1 7 3 9l-18 19c-2-2-5-3-8-3Zm-1-40a10 10 0 1 1 0 21 10 10 0 0 1 0-21Zm-13 5a14 14 0 0 0 11 19v16l-5 1-16-26 7-11Zm13 59a10 10 0 1 1 0-21 10 10 0 0 1 0 21Zm38-59a10 10 0 1 1 0 21 10 10 0 0 1 0-21Zm-38-39a10 10 0 1 1 0 21 10 10 0 0 1 0-21Zm-13 17 4 5-8 12-9-5a14 14 0 0 0 1-7Zm-36 8a10 10 0 1 1 21 0 10 10 0 0 1-21 0Zm19 11 3-3 8 4-6 8Zm0 0"/></g><g clip-path="url(#f)"><path d="m401 285-5-5a1 1 0 1 0-2 1l4 4 1 1a1380 1380 0 0 1-64 0l-2-28-2-23h1l7 7h2v-2l-7-7-2-2-2-1-1 1-1 2-6 6v2h2l5-6a929 929 0 0 1 4 51h-7a1 1 0 0 0 0 3h7v6l2 1 1-1v-6a2623 2623 0 0 0 63 0l-5 6a1 1 0 1 0 3 1l4-5 1-2v-1l-1-3Zm0 0" fill-rule="evenodd"/></g><g clip-path="url(#g)"><path d="m420 294-5-5 3-5a1 1 0 1 0-2-1l-3 4-3-3h-2v2l4 4-3 5 1 2 1-1 3-4 4 4a1 1 0 1 0 2-2Zm0 0" fill-rule="evenodd"/></g><g clip-path="url(#h)"><path d="m316 229-1 1 1 10h-5c-2-2-2-5-3-8a1 1 0 1 0-2 0c0 4 1 8 3 10 1 1 4 2 7 0v5c-1 3-2 6-6 6l-4-1a1 1 0 0 0-1 3h3l2 1c4-1 6-3 8-6 2-5 0-15-1-20l-1-1Zm0 0" fill-rule="evenodd"/></g><g clip-path="url(#i)"><path fill="#333" d="M214 451a53 53 0 0 1-3 17l-2 3-2 1-2-1-1-2 1-3a111 111 0 0 0 2-9 41 41 0 0 0 0-14 65 65 0 0 0-3-10l1-3h2l2 1 2 3 2 7 1 10Zm-32 6 6-6-4-4a264 264 0 0 1-3-5l1-2 3-1h2l1 1 4 5 4-5 1-1h3l2 1 1 2v2l-1 1-2 2-4 4 7 6 1 2v1l-1 3-3 1h-1l-2-2-5-6-5 6-1 2h-2l-3-1-1-3v-1l2-2Zm-12-6a55 55 0 0 1 3-17l2-3 2-1h2l1 3-1 3a65 65 0 0 0-2 15 41 41 0 0 0 1 11 96 96 0 0 0 2 7l-1 2-2 1-2-1-2-3a42 42 0 0 1-3-13v-4Zm0 0"/></g><g clip-path="url(#j)"><path stroke-linecap="round" transform="matrix(1.4448 0 0 1.4476 131 404)" fill="none" stroke-linejoin="round" d="M22 14c-12 4-5 28-16 31" stroke="#333" stroke-width="5"/></g><path stroke-linecap="round" transform="matrix(1.4448 0 0 1.4476 131 404)" fill="none" stroke-linejoin="round" d="M7 27h16" stroke="#333" stroke-width="5"/><g clip-path="url(#k)"><path d="M585 249a5 5 0 0 0 3-1 5 5 0 0 0 2-4v-13a5 5 0 0 0 0-2 5 5 0 0 0-5-3h-45a5 5 0 0 0-3 2 5 5 0 0 0-1 6l21 27-21 27a5 5 0 0 0-1 3 5 5 0 0 0 2 4 5 5 0 0 0 2 1h46a5 5 0 0 0 3 0 5 5 0 0 0 2-5v-12a5 5 0 0 0 0-3 5 5 0 0 0-3-2 5 5 0 0 0-4 0 5 5 0 0 0-2 2 5 5 0 0 0-1 3v7h-30l17-22a5 5 0 0 0 0-6l-17-22h30v8a5 5 0 0 0 1 3 5 5 0 0 0 2 1 5 5 0 0 0 2 1Zm0 0"/></g><g clip-path="url(#l)"><path fill="#040606" d="m700 158-9-3c-3-4-3-9-3-9V67c0-12 12-13 12-13l1 2-1 1s-10 0-10 10v79s0 4 3 7c2 2 4 3 7 3l1 1-1 1"/></g><g clip-path="url(#m)"><path fill="#040606" d="m791 158-2-1 2-1s10 0 10-10V67s0-5-3-8l-7-2-2-1 2-2c3 0 6 2 9 4 3 3 3 9 3 9v79c0 12-12 12-12 12"/></g><path fill="#040606" d="m719 76-1-1V63l1-1 1 1v12l-1 1M704 95l-1-2V82l1-1 1 1v12l-1 1M734 95l-1-2V82l1-1 1 1v12l-1 1M734 114l-1-2v-11a1 1 0 1 1 2 0v12l-1 1M719 151l-1-1v-12l1-1 1 1v12l-1 1M704 64l-2 2-1 1v4l1 2 2 1 3-1v-7l-3-2Zm0 12c-4 0-5-3-5-5v-4c0-2 1-5 5-5s5 3 5 5v4c0 2-1 5-5 5M734 64l-2 2-1 1v4l1 2 2 1 3-1v-7l-3-2Zm0 12c-3 0-5-3-5-5v-4c0-2 2-5 5-5 4 0 5 3 5 5v4c0 2-1 5-5 5M787 95l-1-2V82l1-1 1 1v12l-1 1M787 151l-1-1v-12l1-1 1 1v12l-1 1M787 64l-3 2v7l3 1 2-1v-7l-2-2Zm0 12c-4 0-5-3-5-5v-4c0-2 1-5 5-5 3 0 5 3 5 5v4c0 2-2 5-5 5M787 101l-3 2v7l3 1 2-1v-7l-2-2Zm0 12c-4 0-5-3-5-5v-4c0-2 1-5 5-5 3 0 5 3 5 5v4c0 2-2 5-5 5M719 83l-2 1-1 1v4l1 2 2 1 2-1 1-2v-4l-1-1-2-1Zm0 12c-4 0-5-4-5-6v-4c0-2 1-5 5-5s5 3 5 5v4c0 2-1 6-5 6M719 102l-2 1-1 1v4l1 2 2 1 2-1 1-2v-4l-1-1-2-1Zm0 12c-4 0-5-3-5-6v-4c0-2 1-5 5-5s5 3 5 5v4c0 3-1 6-5 6M704 102l-2 1-1 1v4l1 2 2 1 3-1v-7l-3-1Zm0 12c-4 0-5-3-5-6v-4c0-2 1-5 5-5s5 3 5 5v4c0 3-1 6-5 6M734 139l-2 1-1 2v4l1 1 2 2 3-2v-7l-3-1Zm0 12c-3 0-5-3-5-5v-4c0-2 2-5 5-5 4 0 5 3 5 5v4c0 2-1 5-5 5M704 139l-2 1-1 2v4l1 1 2 2 2-2 1-1v-4l-1-2-2-1Zm0 12c-4 0-5-3-5-5v-4c0-2 1-5 5-5s5 3 5 5v4c0 2-1 5-5 5M746 70l-2-1 2-1a1 1 0 1 1 0 2Zm5 0a1 1 0 1 1 0-2 1 1 0 1 1 0 2Zm5 0h-1l-1-1 1-1h1a1 1 0 0 1 0 2Zm5 0h-1a1 1 0 1 1 0-2h1a1 1 0 0 1 0 2Zm5 0h-1l-1-1 1-1h1a1 1 0 1 1 0 2Zm4 0-1-1 1-1 2 1-2 1M746 89l-2-1 2-2a1 1 0 0 1 0 3Zm5 0-2-1 2-2a1 1 0 1 1 0 3Zm5 0h-1a1 1 0 0 1 0-3h1a1 1 0 0 1 0 3Zm5 0h-1l-1-1 1-2h1a1 1 0 0 1 0 3Zm5 0h-1a1 1 0 0 1 0-3h1a1 1 0 0 1 0 3Zm4 0-1-1 1-2 2 2-2 1M746 107l-2-1 2-1a1 1 0 0 1 0 2Zm5 0a1 1 0 0 1 0-2l1 1-1 1Zm5 0h-1l-1-1 1-1h1a1 1 0 0 1 0 2Zm5 0h-1a1 1 0 0 1 0-2h1a1 1 0 0 1 0 2Zm5 0h-1l-1-1 1-1h1a1 1 0 0 1 0 2Zm4 0-1-1 1-1 2 1-2 1M746 145l-2-1 2-1a1 1 0 1 1 0 2Zm5 0a1 1 0 1 1 0-2 1 1 0 1 1 0 2Zm5 0h-1l-1-1 1-1h1a1 1 0 0 1 0 2Zm5 0h-1a1 1 0 1 1 0-2h1a1 1 0 0 1 0 2Zm5 0h-1l-1-1 1-1h1a1 1 0 1 1 0 2Zm4 0-1-1 1-1 2 1-2 1M787 122l-1-2a1 1 0 1 1 2 0v1l-1 1Zm0 5-1-2 1-1 1 1v1l-1 1M734 122l-1-2a1 1 0 1 1 2 0 1 1 0 0 1-1 2Zm0 5-1-2 1-1 1 1v1l-1 1M719 122l-1-2a1 1 0 1 1 2 0v1l-1 1Zm0 5-1-2a1 1 0 0 1 2 0v1l-1 1M704 122l-1-2a1 1 0 1 1 2 0 1 1 0 0 1-1 2Zm0 5-1-2a1 1 0 0 1 2 0v1l-1 1"/><g clip-path="url(#n)"><path fill="#424242" d="M707 379h77c8 0 15 6 15 14v77c0 8-7 15-15 15h-77c-8 0-15-7-15-15v-77c0-8 7-14 15-14Zm71 50-1-2-1-1-2 1v4l2 1 1-1 1-2Zm-8 7 1 2 2 2h3l5-2 2-6-1-5-3-3h-7l-2 2v3l1 4 4 1h2l1-1-1 3-1 1h-1l-1-1Zm4-31 1 1 1 1 1-1 1-1-1-2-1-1-1 1-1 2Zm0-7 1 1 1 1 1-1 1-1-1-2h-2l-1 2Zm-2 3-2 1v5l2 2 4 1 3-1h2l1-2 1-2a4 4 0 0 0-3-4l1-1 1-2-2-4-4-1-4 1-2 3 1 3 1 1Zm11 69v-3h-7a16 16 0 0 1 3-2l3-3 1-3-1-3-2-1-4-1-3 1-2 1-1 3 4 1 1-2 1-1 2 1v2l-3 3-4 4-2 3Zm-74-76v3h8l-4 6-2 6h5l1-4 2-5 3-3v-3Zm4 41 1 2h3v-4l-2-1-1 1-1 2Zm8-7-1-3-2-1h-3c-2 0-3 0-5 2l-1 6v5l3 2 4 1 3-1 2-2 1-2-2-4-3-2a5 5 0 0 0-4 2l1-4 1-1 1 1 1 1Zm-5 36v-5l-4 5Zm0 3v3h4v-3h2v-3h-2v-10h-4l-8 10v3Zm25-13-2 9h5l1-1 2 1 1 2-1 2-2 1-1-1-1-1h-4l1 2a5 5 0 0 0 3 2h6l2-2 1-3-1-4-4-1h-3v-2h7v-4Zm2-56 1-2h2l1 2-1 1h-2v4l1-1 2 1 1 2-1 1-1 1-2-1-1-1h-4l1 3 2 1 4 1 3-1 2-2 1-3v-2l-2-1h-1l2-2v-2l-1-3-5-1-4 1-2 3Zm7 26h-4l-2 2-3 2v4l2-1 3-2v11h4v-16" fill-rule="evenodd"/></g><g clip-path="url(#o)"><path d="m390 431-1 1-1-4v-5c0-1-1-2-3-1h-2l-1 1v8h-2v-5a96 96 0 0 1 0-5h1l2-1h5c2 1 2 3 2 4v7Zm39 7c0-3-48-1-52-1l-2 1 2 1h45c3 0 7 1 7-1Zm-31 26c-2-5 0-9 4-13l2-2c-1-1-3 0-3 1-4 2-5 6-6 9 0 5 1 7 4 9h4v-1h-2l-3-3Zm31-15c-3 1 1 2 2 3 4 7-1 12-4 18v1h1c3-4 6-8 6-14l-1-5c-1-1-2-5-4-3Zm-70-16h-8v2l4-1h5l-1-1Zm74-21c-1 0-3-1-3 1v1c5 0 4 4 5 6-1 3-1 6-3 8l-2 1v1l4-2 1-4c1-4 2-9-2-12Zm-133 11c2 9-10 13-10 13l-1 12c0 1 1 3-1 4h-1v-4l1-24c0-5 3-5 5-5 3 0 7 1 7 4Zm-6-2c-6 1-5 12-3 12 3-1 7-4 7-8 1-2-1-4-4-4Zm112 9 1-1h-4c-4-5-2-13 4-15 1-1 2-1 1-2h-2c-5 2-7 6-7 11 0 3 1 6 3 8 1 1 3 0 4-1Zm-73-7h-2l1 2c3 2 3 5 4 7v5c0 3-1 6-3 8 0 1-2 1-1 2l2-1c6-5 5-19-1-23Zm25 14h-7v1h7v-1Zm62-9-1-5-3 1h-1l-1 3h-1c0-4 2-8 4-12h1c2 1 2 3 2 5l2 7c0 1-1 2-2 1Zm-4-6 2-1v-4l-2 5Zm3 35-2-1-2-1c-2-1 2-3 3-3v-1l-4 2c-1 1-2 2-1 3l2 1 3 1-1 3-3 1v1c3 0 7-3 5-6Zm-109-13c-5 0-5-6-5-10a21 21 0 0 1 2-9l2-2v-1c-2 0-3 3-4 5a22 22 0 0 0 0 15c1 2 3 4 5 4v-2Zm18 1h-2v-6l-1-3-3 1h-3l-1 2-1 5-1-1 1-6a180 180 0 0 1 3-11c0-1 1-2 3-2l2 3 1 5 1 6 1 7Zm-3-11a79 79 0 0 0-1-7l-1-2c-2 0-4 8-4 9v1h2l4-1Zm58 26-1-6-2-4h-4l-1 1-1-2h-1a61 61 0 0 0 1 10l1 3 1-1-1-3v-5l2-2 3 1 1 4v4h2Zm0 0"/></g><path fill="#fff" d="m204 255-4-2-22 3-4 3-7 13v4l8 21c1 2 2 2 4 2l22-3 4-2 7-13v-5l-8-21"/><path fill="#c4c4c4" d="m213 278-10 3-7 1-8 1c-1 0-2 0-3 2l-4 7-4 7h2l22-3 4-2 7-13 1-3"/><g clip-path="url(#p)"><path d="M201 254h-1l-22 3-3 2-7 13v3l8 22 3 1 22-3 3-2 7-13v-3l-8-22-2-1Zm-23 46-3-2-9-22v-5l7-13 4-3 23-3c2 0 4 1 5 3l8 21v5l-7 13-4 3-23 3h-1"/></g><path d="M177 260a2 2 0 0 1 1-3v-1l-2 1v3l9 22v-2l-8-20M185 284l-8 13-1 1v-1h-1l1 1h2l8-14h-1M213 276l-1 1a2 2 0 0 1-1 2l-7 1-7 1-8 1-2 1 10-1 7-1 7-2a2 2 0 0 0 2-3M185 265l-4-2c0-2 1-3 3-4l3 2c1 2 0 4-2 4M173 279l2-4 3 3c0 2-1 3-2 3-1 1-2-1-3-2M204 277c-2 0-3-1-3-3 0-1 1-3 3-3s3 1 3 3-1 3-3 3M190 279c-2 0-3-1-3-3 0-1 1-3 3-3s3 1 3 3-1 3-3 3M198 263c-2 0-3-1-3-3s1-3 3-3 3 1 3 3c0 1-1 3-3 3M204 286l-3-1 2-2 3 1-2 2M195 290h-3l2-2h3c1 1 0 2-2 2M187 295l-3-1 2-2 3 1-2 2"/><path fill="#fff" d="M147 271c-1 0-2 0-3-2l-7-13v-4l3-22v-1l3-2 25-1c2 0 3 1 3 2l7 14 1 4-3 22-3 2-26 1"/><path fill="#c4c4c4" d="m147 240-5-9-1-3-1 1v1l-3 22v4l7 13 2 2v-2l3-17v-7l-2-5"/><g clip-path="url(#q)"><path d="m168 225-25 1h-1a4 4 0 0 0-3 3l-3 23v4l7 14a4 4 0 0 0 4 2l26-1c2 0 3-1 4-3l3-22-1-5-7-13c0-2-2-3-4-3Zm0 2 3 2 7 13v3l-3 23-2 1-26 1-2-1-7-14v-3l3-22c0-2 2-2 2-2l25-1"/></g><path fill="#fff" d="M142 230a1 1 0 0 1 1-2l25-1 3 1 7 14a1 1 0 0 1-1 2l-28 1-7-15"/><path d="M177 244h-12l-2-2-1-1 1 1 1 2-14 1-3-5-5-10 1-2 25-1 3 2 7 13-1 2Zm1-2-7-14-3-1h-25l-2 1v2l5 10 3 5 1 1 14-1v2l1-1v-1l12-1a2 2 0 0 0 1-2"/><path d="m147 271-1-1v-1l3-18v-6l1 1v4a267 267 0 0 1-3 20h1l-1 1M163 261c-2 0-3-1-3-3 0-1 1-3 3-3s3 2 3 3c0 2-1 3-3 3M160 237c-2 0-3-1-3-2s1-2 3-2l4 2-4 2M144 240l-2 2-1-3 1-2c1 0 2 1 2 3M145 250c0 1-1 3-2 2l-1-2 1-3c1 0 2 1 2 3M146 259c0 2-1 3-2 3l-1-3 2-3 1 3M156 254c-1 0-3-1-3-3s2-3 3-3c2 0 3 1 3 3s-1 3-3 3M171 254c-2 0-3-1-3-3s1-3 3-3 3 1 3 3-1 3-3 3M154 267c-2 0-3-1-3-3 0-1 1-3 3-3l3 3c0 2-2 3-3 3M170 267c-2 0-3-2-3-3s1-2 3-2l2 2-2 3"/><g clip-path="url(#r)"><path d="M588 423a26 26 0 0 0-25-32 26 26 0 0 0-26 32 26 26 0 1 0 26 45c4 3 9 5 14 5a26 26 0 0 0 11-50Zm-25-27a21 21 0 0 1 20 25 26 26 0 0 0-20 4 26 26 0 0 0-21-4v-4c0-11 9-21 21-21Zm18 30c-2 4-5 8-9 10l-5-7a21 21 0 0 1 14-3Zm-14 12a21 21 0 0 1-8 0c1-3 2-5 4-6l4 6Zm-9-9-5 7c-4-2-7-6-9-10a21 21 0 0 1 14 3Zm-10 39a21 21 0 0 1-9-40c2 6 7 10 13 13a26 26 0 0 0 6 24c-3 1-6 3-10 3Zm9-21v-4a26 26 0 0 0 11 0 21 21 0 0 1-5 18c-4-3-6-9-6-14Zm20 21-10-3a26 26 0 0 0 7-24c5-3 10-7 13-13a21 21 0 0 1-10 40Zm0 0"/></g><path stroke-linecap="round" transform="matrix(.91648 0 0 .91408 681 193)" fill="none" stroke-linejoin="round" d="M100 53c-5 6-5 10-1 13a7 7 0 0 0 9 1 8 8 0 0 0 4-9 8 8 0 0 0-3-4 8 8 0 0 0-4-2h-4M42 82c-6-1-10 1-12 5-1 3 0 8 4 10 3 2 7 1 10-1 2-2 3-7 1-10l-2-3M63 112c-5-1-9 1-10 5-2 3 0 8 3 10s7 1 10-1c2-2 3-7 1-10l-2-3M100 113c-5 6-5 10-1 13a7 7 0 0 0 9 1 8 8 0 0 0 4-9 8 8 0 0 0-5-5l-2-1h-4" stroke="#000" stroke-width="4"/><g clip-path="url(#s)"><path stroke-linecap="round" transform="matrix(.91648 0 0 .91408 681 193)" fill="none" stroke-linejoin="round" d="M87 37c4-7 4-10 0-13a8 8 0 0 0-6-2 8 8 0 0 0-4 2c-3 3-4 7-1 11 1 3 5 4 8 3l3-1" stroke="#000" stroke-width="4"/></g><path stroke-linecap="round" transform="matrix(.91648 0 0 .91408 681 193)" fill="none" stroke-linejoin="round" d="M63 53c-4-2-7-1-10 3a7 7 0 0 0-1 6l1 2c2 4 8 5 11 3 4-2 5-8 3-11l-2-3M87 96c4-6 4-10-1-13-3-1-6-2-9 1s-4 6-2 10c1 3 6 5 9 4l3-1M77 37 64 53M87 37l13 16M55 67 42 82M66 67l12 15M77 97l-13 15M87 97l13 15" stroke="#000" stroke-width="4"/></svg>